<svg
                xmlns="http://www.w3.org/2000/svg"
                width="45"
                height="28"
                viewBox="0 0 45 28"
                fill="none"
            >
                <g clipPath="url(#clip0_936_26077)">
                    <path
                        d="M41.0311 0H4.63822C4.48665 0 4.33481 0 4.18351 0.000871985C4.05562 0.00177039 3.92802 0.00317086 3.80042 0.00660595C3.52213 0.014031 3.24146 0.0302288 2.96665 0.0789543C2.68746 0.128525 2.42765 0.209382 2.17419 0.336692C1.92502 0.461703 1.6969 0.625213 1.49921 0.820327C1.30143 1.01544 1.13569 1.24012 1.009 1.48621C0.879932 1.73625 0.797919 1.99264 0.74802 2.2683C0.698365 2.53949 0.681836 2.81633 0.674337 3.09058C0.670909 3.21646 0.669438 3.34235 0.668605 3.4682C0.667721 3.61779 0.668016 3.76727 0.668016 3.91712V24.0832C0.668016 24.233 0.667721 24.3822 0.668605 24.5321C0.669438 24.658 0.670909 24.7839 0.674337 24.9097C0.681836 25.1838 0.698365 25.4606 0.74802 25.7317C0.797919 26.0075 0.879932 26.2637 1.009 26.5138C1.13569 26.7599 1.30143 26.9849 1.49921 27.1797C1.6969 27.3751 1.92502 27.5386 2.17419 27.6633C2.42765 27.791 2.68746 27.8718 2.96665 27.9214C3.24146 27.9698 3.52213 27.9863 3.80042 27.9937C3.92802 27.9966 4.05562 27.9983 4.18351 27.9988C4.33481 28 4.48665 28 4.63822 28H41.0311C41.1824 28 41.3342 28 41.4855 27.9988C41.6131 27.9983 41.7407 27.9966 41.8689 27.9937C42.1466 27.9863 42.4272 27.9698 42.7027 27.9214C42.9815 27.8718 43.2414 27.791 43.4949 27.6633C43.7443 27.5386 43.9717 27.3751 44.1698 27.1797C44.3673 26.9849 44.533 26.7599 44.66 26.5138C44.7894 26.2637 44.8713 26.0075 44.921 25.7317C44.9707 25.4606 44.9868 25.1838 44.9943 24.9097C44.9978 24.7839 44.9995 24.658 45.0001 24.5321C45.0013 24.3822 45.0013 24.233 45.0013 24.0832V3.91712C45.0013 3.76727 45.0013 3.61779 45.0001 3.4682C44.9995 3.34235 44.9978 3.21646 44.9943 3.09058C44.9868 2.81633 44.9707 2.53949 44.921 2.2683C44.8713 1.99264 44.7894 1.73625 44.66 1.48621C44.533 1.24012 44.3673 1.01544 44.1698 0.820327C43.9717 0.625213 43.7443 0.461703 43.4949 0.336692C43.2414 0.209382 42.9815 0.128525 42.7027 0.0789543C42.4272 0.0302288 42.1466 0.014031 41.8689 0.00660595C41.7407 0.00317086 41.6131 0.00177039 41.4855 0.000871985C41.3342 0 41.1824 0 41.0311 0Z"
                        fill="black"
                    />
                    <path
                        d="M41.0304 0.933594L41.4781 0.934439C41.5993 0.935285 41.7206 0.93658 41.8426 0.939856C42.0547 0.945511 42.3029 0.956847 42.5342 0.997751C42.7352 1.03348 42.9039 1.0878 43.0657 1.16908C43.2255 1.24917 43.3718 1.35413 43.4996 1.48004C43.6279 1.60679 43.7345 1.75144 43.8167 1.9108C43.8986 2.06921 43.9534 2.23478 43.9894 2.4346C44.0307 2.66031 44.0422 2.90579 44.048 3.11636C44.0512 3.23521 44.0528 3.35407 44.0534 3.47575C44.0546 3.6229 44.0546 3.76998 44.0546 3.91742V24.0835C44.0546 24.2309 44.0546 24.3777 44.0534 24.528C44.0528 24.6469 44.0512 24.7657 44.0479 24.8848C44.0422 25.095 44.0307 25.3404 43.9889 25.5688C43.9534 25.7658 43.8987 25.9314 43.8163 26.0906C43.7343 26.2496 43.6279 26.3941 43.5002 26.52C43.3716 26.6469 43.2257 26.7515 43.0641 26.8323C42.9035 26.9132 42.7351 26.9675 42.536 27.0029C42.3 27.0443 42.0415 27.0558 41.8468 27.061C41.7243 27.0637 41.6023 27.0653 41.4774 27.0659C41.3286 27.067 41.1792 27.067 41.0304 27.067H4.6375C4.63552 27.067 4.63359 27.067 4.63158 27.067C4.48443 27.067 4.33698 27.067 4.18715 27.0659C4.06499 27.0653 3.9431 27.0637 3.82525 27.0611C3.62608 27.0558 3.36737 27.0444 3.13331 27.0031C2.93251 26.9675 2.76417 26.9132 2.60143 26.8313C2.44129 26.7512 2.2955 26.6466 2.16691 26.5196C2.03931 26.3939 1.93327 26.2499 1.85128 26.0907C1.76922 25.9316 1.71431 25.7655 1.67821 25.5661C1.63648 25.3382 1.62501 25.0938 1.61928 24.885C1.61601 24.7654 1.61465 24.6459 1.61387 24.527L1.61328 24.1761L1.61331 24.0835V3.91742L1.61328 3.82478L1.61384 3.47464C1.61465 3.35507 1.61601 3.23553 1.61928 3.11607C1.62501 2.90703 1.63648 2.66256 1.67855 2.43272C1.71434 2.2351 1.76922 2.069 1.85171 1.90916C1.93306 1.75117 2.03928 1.60695 2.16755 1.48043C2.29531 1.35434 2.44158 1.24952 2.60274 1.16866C2.76374 1.08778 2.9324 1.03348 3.1332 0.99783C3.36456 0.95682 3.61288 0.945511 3.82554 0.93983C3.94677 0.93658 4.06799 0.935285 4.1883 0.934466L4.6375 0.933594H41.0304Z"
                        fill="white"
                    />
                    <path
                        d="M12.7705 9.41751C13.1501 8.94911 13.4077 8.32018 13.3397 7.67749C12.784 7.70475 12.106 8.03916 11.7134 8.50793C11.3609 8.90936 11.0489 9.56462 11.1302 10.1804C11.754 10.2337 12.3772 9.87277 12.7705 9.41751Z"
                        fill="black"
                    />
                    <path
                        d="M13.3315 10.3002C12.4257 10.247 11.6555 10.8074 11.2229 10.8074C10.79 10.8074 10.1276 10.327 9.41108 10.34C8.47852 10.3535 7.61321 10.8737 7.13998 11.701C6.16661 13.3561 6.88311 15.8111 7.82965 17.1591C8.28931 17.826 8.84329 18.5603 9.57323 18.5339C10.2629 18.5072 10.5332 18.0933 11.3716 18.0933C12.2093 18.0933 12.4528 18.5339 13.1828 18.5206C13.9399 18.5072 14.4132 17.8534 14.8729 17.1858C15.4002 16.4256 15.6161 15.6916 15.6297 15.6513C15.6161 15.6379 14.1698 15.0905 14.1564 13.4492C14.1427 12.0749 15.2919 11.4212 15.346 11.3807C14.697 10.4338 13.6831 10.327 13.3315 10.3002Z"
                        fill="black"
                    />
                    <path
                        d="M21.2184 8.44116C23.1873 8.44116 24.5583 9.78008 24.5583 11.7294C24.5583 13.6858 23.1591 15.0316 21.169 15.0316H18.9891V18.4517H17.4141V8.44116L21.2184 8.44116ZM18.9891 13.7274H20.7963C22.1676 13.7274 22.948 12.999 22.948 11.7364C22.948 10.4739 22.1676 9.75238 20.8033 9.75238H18.9891V13.7274Z"
                        fill="black"
                    />
                    <path
                        d="M24.9688 16.3779C24.9688 15.1013 25.9602 14.3175 27.7184 14.2203L29.7434 14.1024V13.5405C29.7434 12.7288 29.1878 12.2432 28.2598 12.2432C27.3806 12.2432 26.8321 12.6594 26.6986 13.3116H25.2642C25.3485 11.9934 26.4876 11.0222 28.316 11.0222C30.1091 11.0222 31.2552 11.9588 31.2552 13.4225V18.4521H29.7996V17.2519H29.7646C29.3357 18.0636 28.4003 18.5769 27.43 18.5769C25.9814 18.5769 24.9688 17.689 24.9688 16.3779ZM29.7434 15.7189V15.1431L27.9221 15.254C27.015 15.3165 26.5017 15.7119 26.5017 16.3363C26.5017 16.9744 27.0361 17.3907 27.8518 17.3907C28.9136 17.3907 29.7434 16.6692 29.7434 15.7189Z"
                        fill="black"
                    />
                    <path
                        d="M32.6298 21.1369V19.9228C32.7421 19.9505 32.9952 19.9505 33.1219 19.9505C33.825 19.9505 34.2048 19.6592 34.4367 18.91C34.4367 18.8961 34.5705 18.466 34.5705 18.4591L31.8984 11.1541H33.5437L35.4144 17.0925H35.4423L37.313 11.1541H38.9162L36.1455 18.8336C35.5129 20.6027 34.7815 21.1716 33.2486 21.1716C33.1219 21.1716 32.7421 21.1576 32.6298 21.1369Z"
                        fill="black"
                    />
                </g>
                <defs>
                    <clipPath id="clip0_936_26077">
                        <rect
                            width="44.3333"
                            height="28"
                            fill="white"
                            transform="translate(0.667969)"
                        />
                    </clipPath>
                </defs>
            </svg>