<svg width="65" height="35" viewBox="0 0 65 35" fill="none" xmlns="http://www.w3.org/2000/svg">
<g clip-path="url(#clip0_552_974)">
<path d="M47.4439 0.434082H17.8425C8.59199 0.434082 1.02344 8.07559 1.02344 17.4152C1.02344 26.7548 8.59199 34.3963 17.8425 34.3963H47.4439C56.6944 34.3963 64.2629 26.7548 64.2629 17.4152C64.2629 8.07559 56.6944 0.434082 47.4439 0.434082Z" fill="white"/>
<path d="M47.4439 1.80955C49.5211 1.80955 51.5393 2.22559 53.4399 3.04069C55.2816 3.83031 56.9298 4.95955 58.3594 6.39446C59.7807 7.82936 60.8991 9.50201 61.6812 11.3614C62.4885 13.2803 62.9006 15.318 62.9006 17.4152C62.9006 19.5124 62.4885 21.5501 61.6812 23.469C60.8991 25.3284 59.7807 26.9926 58.3594 28.436C56.9382 29.8709 55.2816 31.0001 53.4399 31.7897C51.5393 32.6048 49.5211 33.0209 47.4439 33.0209H17.8425C15.7653 33.0209 13.747 32.6048 11.8465 31.7897C10.0048 31.0001 8.35653 29.8709 6.92691 28.436C5.5057 27.0011 4.38724 25.3284 3.60516 23.469C2.79784 21.5501 2.38578 19.5124 2.38578 17.4152C2.38578 15.318 2.79784 13.2803 3.60516 11.3614C4.38724 9.50201 5.5057 7.83786 6.92691 6.39446C8.34812 4.95955 10.0048 3.83031 11.8465 3.04069C13.747 2.22559 15.7653 1.80955 17.8425 1.80955H47.4439ZM47.4439 0.434082H17.8425C8.59199 0.434082 1.02344 8.07559 1.02344 17.4152C1.02344 26.7548 8.59199 34.3963 17.8425 34.3963H47.4439C56.6944 34.3963 64.2629 26.7548 64.2629 17.4152C64.2629 8.07559 56.6944 0.434082 47.4439 0.434082Z" fill="#3C4043"/>
<path d="M31.181 18.6214V23.7582H29.5664V11.0732H33.8468C34.9317 11.0732 35.8567 11.4383 36.6136 12.1685C37.3872 12.8987 37.7741 13.7902 37.7741 14.8431C37.7741 15.9214 37.3872 16.8129 36.6136 17.5346C35.8651 18.2563 34.9401 18.6129 33.8468 18.6129H31.181V18.6214ZM31.181 12.6355V17.0591H33.8805C34.5196 17.0591 35.0578 16.8383 35.4783 16.4053C35.9072 15.9723 36.1258 15.4459 36.1258 14.8515C36.1258 14.2657 35.9072 13.7478 35.4783 13.3148C35.0578 12.8648 34.528 12.644 33.8805 12.644H31.181V12.6355Z" fill="#3C4043"/>
<path d="M41.9967 14.792C43.1909 14.792 44.1327 15.1146 44.8223 15.7599C45.5119 16.4052 45.8567 17.2882 45.8567 18.409V23.758H44.3178V22.5524H44.2505C43.5861 23.5458 42.6947 24.0382 41.5847 24.0382C40.6344 24.0382 39.8439 23.758 39.2048 23.1892C38.5657 22.6203 38.2461 21.9156 38.2461 21.0665C38.2461 20.1665 38.5825 19.4533 39.2552 18.9269C39.928 18.392 40.8278 18.1288 41.9463 18.1288C42.905 18.1288 43.6955 18.3071 44.3094 18.6637V18.2901C44.3094 17.7212 44.0907 17.2458 43.645 16.8467C43.1993 16.4477 42.6779 16.2524 42.0808 16.2524C41.181 16.2524 40.4662 16.6344 39.9448 17.4071L38.5236 16.5071C39.3057 15.3609 40.4662 14.792 41.9967 14.792ZM39.9112 21.092C39.9112 21.5165 40.0878 21.8731 40.4494 22.1533C40.8026 22.4335 41.2231 22.5778 41.7024 22.5778C42.3836 22.5778 42.9891 22.3231 43.5189 21.8137C44.0487 21.3043 44.3178 20.7099 44.3178 20.0222C43.8132 19.6231 43.1152 19.4194 42.2154 19.4194C41.5594 19.4194 41.0128 19.5807 40.5755 19.8948C40.1298 20.226 39.9112 20.625 39.9112 21.092Z" fill="#3C4043"/>
<path d="M54.6336 15.0723L49.2515 27.5704H47.5864L49.5879 23.1977L46.0391 15.0723H47.7967L50.3531 21.3043H50.3868L52.876 15.0723H54.6336Z" fill="#3C4043"/>
<path d="M24.758 17.5853C24.758 17.0538 24.7109 16.5452 24.6234 16.0562H17.8555V18.858L21.7533 18.8589C21.5952 19.7912 21.0864 20.5859 20.3068 21.1157V22.9335H22.627C23.9818 21.6676 24.758 19.7962 24.758 17.5853Z" fill="#4285F4"/>
<path d="M20.3068 21.1157C19.661 21.5555 18.8293 21.8128 17.8563 21.8128C15.9768 21.8128 14.3823 20.5341 13.8113 18.8105H11.418V20.6853C12.6037 23.0609 15.0408 24.6911 17.8563 24.6911C19.8022 24.6911 21.4371 24.045 22.627 22.9327L20.3068 21.1157Z" fill="#34A853"/>
<path d="M13.5864 17.4196C13.5864 16.9357 13.6663 16.4678 13.8118 16.028V14.1533H11.4184C10.9282 15.1357 10.6523 16.2445 10.6523 17.4196C10.6523 18.5947 10.929 19.7036 11.4184 20.686L13.8118 18.8112C13.6663 18.3714 13.5864 17.9036 13.5864 17.4196Z" fill="#FABB05"/>
<path d="M17.8563 13.0258C18.9184 13.0258 19.8695 13.3951 20.6205 14.1168L22.6766 12.0426C21.4278 10.8683 19.7997 10.1475 17.8563 10.1475C15.0416 10.1475 12.6037 11.7776 11.418 14.1533L13.8113 16.028C14.3823 14.3044 15.9768 13.0258 17.8563 13.0258Z" fill="#E94235"/>
</g>
<defs>
<clipPath id="clip0_552_974">
<rect width="64" height="35" fill="white" transform="translate(0.267578)"/>
</clipPath>
</defs>
</svg>
